# File created by Blade
# Date/Time:  Mon Nov 18 18:33:23 2013
# Frame Rate: 100.000 fps
#------------------------------------------------------
:FULLY-SPECIFIED
:DEGREES
38
root 51.227834 0.255852 52.846238 -5.829619 3.599088 -128.945368
Spine 6.906057 -0.439405 -0.885212
Spine1 2.130010 1.641859 -1.791554
Spine2 0.702127 -1.662778 -2.175652
NeckDummy 0.003154 -0.071802 -0.015666 -0.498087 1.779587 -0.563469
Neck 22.251081 2.630352 29.103583
Head -0.340773 0.386946 0.138573 -33.210328 -4.495731 -0.913888
LeftShoulderDummy -0.057017 -0.071310 -0.004041 -0.464463 1.645181 -0.380396
LeftShoulder 10.696744 -4.151525 17.841436
LeftArm 2.428236 44.759988 14.402918
LeftForeArm 91.390872
LeftForeArmRoll -28.627013
LeftHand -9.096233 4.676663 -2.657391
LeftHandThumb1 15.472700 13.006915
LeftHandIndex1 16.293169 42.210853
LeftHandPinky1 14.030942 46.766167
RightShoulderDummy -0.019176 -0.052122 0.040673 -0.514837 -1.807815 0.641922
RightShoulder 8.385460 3.220902 21.484476
RightArm -50.264491 53.778280 -3.657364
RightForeArm 114.936317
RightForeArmRoll 6.113191
RightHand -17.156606 -15.574982 12.765467
RightHandThumb1 -1.130523 14.626459
RightHandIndex1 14.198548 61.875827
RightHandPinky1 19.009791 70.380710
LeftUpLeg 16.700683 10.157119 -6.313406
LeftLeg 28.825191
LeftFoot 0.284450 -0.391559 -0.342062 -11.688792 11.143441 -10.200584
LeftToeBase -1.772312
RightUpLeg 13.452319 14.968690 -6.181471
RightLeg 34.188029
RightFoot -0.446177 0.290895 0.115523 -4.087555 2.151442 -20.923495
RightToeBase -0.960213
39
root 51.238114 0.255634 52.839438 -5.823494 3.650801 -128.910816
Spine 6.972614 -0.477776 -0.889138
Spine1 2.133432 1.612379 -1.800741
Spine2 0.674740 -1.638541 -2.173444
NeckDummy 0.003172 -0.071510 -0.015014 -0.516362 1.775467 -0.560399
Neck 22.137317 2.549798 29.036254
Head -0.336880 0.388119 0.140552 -33.246111 -4.457967 -0.863530
LeftShoulderDummy -0.057008 -0.070976 -0.002619 -0.482687 1.641282 -0.376734
LeftShoulder 10.674805 -4.141163 17.803555
LeftArm 2.570298 44.789387 14.543412
LeftForeArm 91.327669
LeftForeArmRoll -28.720380
LeftHand -9.084429 4.796286 -2.690867
LeftHandThumb1 15.443877 13.094240
LeftHandIndex1 16.314576 42.302988
LeftHandPinky1 14.108064 46.735472
RightShoulderDummy -0.019133 -0.051871 0.042006 -0.532923 -1.803535 0.638183
RightShoulder 8.385092 3.169938 21.558321
RightArm -50.523579 54.076578 -3.955722
RightForeArm 114.812455
RightForeArmRoll 6.252153
RightHand -17.200265 -15.373159 12.594428
RightHandThumb1 -1.436879 14.434986
RightHandIndex1 14.671820 61.704651
RightHandPinky1 19.272129 70.131613
LeftUpLeg 16.652345 10.112564 -6.363963
LeftLeg 28.829834
LeftFoot 0.290882 -0.395694 -0.348290 -11.686308 11.149916 -10.094298
LeftToeBase -1.822045
RightUpLeg 13.389928 14.973759 -6.201591
RightLeg 34.237307
RightFoot -0.446457 0.285211 0.109747 -4.009993 2.270680 -20.989407
RightToeBase -0.965321
40
root 51.245030 0.255551 52.816711 -5.804920 3.665490 -128.811679
Spine 6.967062 -0.489707 -0.916281
Spine1 2.118423 1.603318 -1.867932
Spine2 0.676820 -1.661327 -2.088048
NeckDummy 0.002860 -0.072067 -0.014852 -0.507120 1.716822 -0.557837
Neck 22.062760 2.524470 28.961361
Head -0.339368 0.390192 0.142098 -33.273738 -4.474960 -0.912193
LeftShoulderDummy -0.056683 -0.071301 -0.001513 -0.473069 1.582740 -0.375775
LeftShoulder 10.739072 -4.113471 17.759141
LeftArm 2.789348 44.754007 14.757682
LeftForeArm 91.278204
LeftForeArmRoll -28.772622
LeftHand -9.151221 4.865157 -2.676265
LeftHandThumb1 15.439900 13.162697
LeftHandIndex1 16.288070 42.300633
LeftHandPinky1 14.834427 46.735021
RightShoulderDummy -0.019975 -0.052420 0.040778 -0.523334 -1.744715 0.633369
RightShoulder 8.520812 3.122866 21.582084
RightArm -50.644491 54.398401 -4.196127
RightForeArm 114.713641
RightForeArmRoll 6.276105
RightHand -17.105174 -15.476723 12.743022
RightHandThumb1 -1.024795 14.305145
RightHandIndex1 14.048154 61.864843
RightHandPinky1 19.469625 70.586818
LeftUpLeg 16.416472 10.081559 -6.422005
LeftLeg 28.860974
LeftFoot 0.295231 -0.403064 -0.356691 -11.709561 11.137716 -10.043319
LeftToeBase -1.817395
RightUpLeg 13.458442 14.957160 -6.164776
RightLeg 34.227261
RightFoot -0.443956 0.282552 0.107732 -4.007176 2.288890 -21.063221
RightToeBase -0.975002
41
root 51.265359 0.257278 52.789091 -5.792033 3.629113 -128.798964
Spine 6.976081 -0.463649 -0.924824
Spine1 2.138936 1.627640 -1.894726
Spine2 0.674896 -1.667575 -2.151698
NeckDummy 0.003104 -0.075350 -0.014770 -0.487430 1.763272 -0.561164
Neck 21.989993 2.385209 28.942048
Head -0.334640 0.393305 0.143886 -33.365387 -4.416857 -0.862329
LeftShoulderDummy -0.056434 -0.074751 -0.003466 -0.453900 1.630294 -0.379941
LeftShoulder 10.617169 -4.132981 17.761203
LeftArm 2.800430 44.719404 14.811995
LeftForeArm 91.209506
LeftForeArmRoll -28.761685
LeftHand -9.133806 4.878194 -2.726118
LeftHandThumb1 15.563375 13.252670
LeftHandIndex1 16.471699 42.089050
LeftHandPinky1 14.180301 46.792483
RightShoulderDummy -0.020194 -0.055723 0.041633 -0.502118 -1.792577 0.634789
RightShoulder 8.484069 3.164682 21.487629
RightArm -51.058071 54.825847 -4.724476
RightForeArm 114.571994
RightForeArmRoll 6.330348
RightHand -17.364452 -15.034171 12.624175
RightHandThumb1 -1.525780 14.123310
RightHandIndex1 14.554723 60.936666
RightHandPinky1 19.604553 70.037306
LeftUpLeg 16.380309 10.170674 -6.473135
LeftLeg 28.898391
LeftFoot 0.279917 -0.406238 -0.332311 -11.380405 11.247435 -9.853795
LeftToeBase -2.358845
RightUpLeg 13.418052 14.829097 -6.179539
RightLeg 34.268171
RightFoot -0.450376 0.282104 0.098743 -3.900738 2.385102 -21.124053
RightToeBase -0.986361
